<svg width="88" height="88" viewBox="0 0 88 88" fill="none" xmlns="http://www.w3.org/2000/svg">
<g clip-path="url(#clip0_1151_127)">
<rect width="88" height="88" rx="44" fill="#EBEFF2"/>
<path d="M107.473 78.9202C100.935 88.9648 89.6219 95.6043 76.7583 95.6043C65.2729 95.6043 55.0227 90.3096 48.3032 82.0256C50.46 77.6428 53.0491 73.961 55.3161 73.0291C59.9231 71.1309 64.8121 69.0148 64.8121 69.0148C66.2791 74.2722 70.1018 77.8392 77.4281 77.7045C84.7558 77.5697 86.8597 74.1847 88.0748 72.2879C89.2913 70.3926 89.6305 68.295 89.6305 68.295C89.6305 68.295 95.7116 72.0843 102.873 74.6564C104.637 75.2887 106.168 76.8815 107.473 78.9202Z" fill="url(#paint0_radial_1151_127)"/>
<path d="M66.9982 67.92C66.9982 67.92 65.5711 68.6737 64.6893 68.8966C64.6893 68.8966 64.4218 78.6816 77.5068 78.2978C90.5919 77.9153 90.176 68.1853 90.176 68.1853C90.176 68.1853 88.6489 67.9186 88.0948 67.3851C88.0948 67.3851 86.6192 76.0029 77.4333 75.9591C68.2475 75.9168 66.9982 67.92 66.9982 67.92Z" fill="#B9C5CF"/>
<path d="M88.3451 68.0738C87.3855 67.3955 87.522 66.3089 87.522 66.3089V61.0156C84.1121 64.7811 78.1111 66.4958 77.6713 66.6007C77.2314 66.4958 72.0477 65.1879 68.6364 61.4224L68.6059 67.394C68.6059 67.394 68.4694 67.9373 67.5099 68.6157C67.5099 68.6157 66.5809 74.4508 70.6933 76.0791C74.5633 77.6112 77.3563 77.4043 77.6713 77.3755C77.9877 77.4057 80.7806 77.6112 84.6492 76.0791C88.7631 74.4522 88.3451 68.0738 88.3451 68.0738Z" fill="#E5E3DF"/>
<path d="M66.7355 49.0115C66.7355 49.0115 65.5042 46.8408 63.4529 47.4791C61.4017 48.1175 65.2318 56.5461 67.4193 54.2482L66.7355 49.0115Z" fill="#CFBDB9"/>
<path d="M88.1303 49.0115C88.1303 49.0115 89.3616 46.8408 91.4129 47.4791C93.4641 48.1175 89.6339 56.5461 87.4465 54.2482L88.1303 49.0115Z" fill="#B9C5CF"/>
<path d="M89.2636 42.8847C86.0227 37.6351 77.8606 38.2633 77.4325 38.299C77.0029 38.2619 68.8424 37.6337 65.6014 42.8847C65.6014 42.8847 65.597 46.7936 65.6014 48.8166C65.6058 50.8382 65.8839 56.9058 66.5782 58.6575C67.2726 60.4107 71.9966 65.9372 75.8863 66.4768C76.819 66.4768 77.2869 66.4768 77.4149 66.4768C77.4399 66.4768 77.4531 66.4768 77.4531 66.4768C77.5811 66.4768 78.0489 66.4768 78.9817 66.4768C82.8714 65.9372 87.5939 60.4107 88.2897 58.6575C88.9841 56.9043 89.2622 50.8382 89.2666 48.8166C89.2695 46.7936 89.2636 42.8847 89.2636 42.8847Z" fill="white"/>
<path d="M65.594 48.2489C65.594 48.2489 64.3506 38.991 77.7203 39.2519C91.0886 39.5142 88.8642 48.2695 88.8642 48.2695L89.6549 47.7463C89.6549 47.7463 91.1078 42.7282 89.1681 39.2461C87.2284 35.7639 87.6665 34.1943 86.9644 33.3223C86.2623 32.4503 79.8547 27.7415 74.5888 29.5719C69.3229 31.4024 67.8302 33.3223 67.0411 34.0199C66.2519 34.7175 65.7238 35.0663 65.6368 36.2006C65.5483 37.335 65.0203 40.4463 64.7577 41.4195C64.4951 42.3926 65.0675 46.332 65.0675 47.9016L65.594 48.2489Z" fill="#DAD4CF"/>
<path d="M67.4218 43.2427C67.4218 43.2427 67.3412 44.1607 68.2337 44.2212C69.1262 44.2817 71.9649 40.9183 77.5631 40.9183C83.1612 40.9183 86.2432 44.3437 86.8924 44.5872C87.5416 44.8308 88.6774 43.9762 88.2715 43.1808C87.8655 42.3853 85.5969 38.2573 77.8884 38.2573C70.1799 38.2573 67.4218 43.2427 67.4218 43.2427Z" fill="#CFBDB9"/>
<path d="M39.0941 78.9202C32.5564 88.9648 21.2428 95.6043 8.37919 95.6043C-3.10616 95.6043 -13.3564 90.3096 -20.0759 82.0256C-17.9191 77.6428 -15.33 73.961 -13.063 73.0291C-8.45598 71.1309 -3.56701 69.0148 -3.56701 69.0148C-2.10003 74.2722 1.72269 77.8392 9.04899 77.7045C16.3767 77.5697 18.4806 74.1847 19.6957 72.2879C20.9122 70.3926 21.2514 68.295 21.2514 68.295C21.2514 68.295 27.3325 72.0843 34.4942 74.6564C36.2575 75.2887 37.7889 76.8815 39.0941 78.9202Z" fill="url(#paint1_radial_1151_127)"/>
<path d="M-1.38088 67.92C-1.38088 67.92 -2.80799 68.6737 -3.68983 68.8966C-3.68983 68.8966 -3.95733 78.6816 9.12774 78.2978C22.2128 77.9153 21.7969 68.1853 21.7969 68.1853C21.7969 68.1853 20.2698 67.9186 19.7157 67.3851C19.7157 67.3851 18.2401 76.0029 9.05425 75.9591C-0.131603 75.9168 -1.38088 67.92 -1.38088 67.92Z" fill="#B9C5CF"/>
<path d="M19.966 68.0738C19.0064 67.3955 19.1429 66.3089 19.1429 66.3089V61.0156C15.733 64.7811 9.73202 66.4958 9.29218 66.6007C8.85233 66.4958 3.66859 65.1879 0.25727 61.4224L0.226785 67.394C0.226785 67.394 0.0903343 67.9373 -0.869189 68.6157C-0.869189 68.6157 -1.79823 74.4508 2.31422 76.0791C6.18425 77.6112 8.97717 77.4043 9.29218 77.3755C9.60863 77.4057 12.4016 77.6112 16.2701 76.0791C20.384 74.4522 19.966 68.0738 19.966 68.0738Z" fill="#E5E3DF"/>
<path d="M19.7511 49.0115C19.7511 49.0115 20.9825 46.8408 23.0337 47.4791C25.085 48.1175 21.2548 56.5461 19.0674 54.2482L19.7511 49.0115Z" fill="#CFBDB9"/>
<path d="M20.8846 42.8847C17.6436 37.6351 9.48154 38.2633 9.05343 38.299C8.62385 38.2619 0.46328 37.6337 -2.7777 42.8847C-2.7777 42.8847 -2.78212 46.7936 -2.7777 48.8166C-2.77329 50.8382 -2.49524 56.9058 -1.80085 58.6575C-1.10646 60.4107 3.61747 65.9372 7.50723 66.4768C8.43995 66.4768 8.90778 66.4768 9.03577 66.4768C9.06078 66.4768 9.07403 66.4768 9.07403 66.4768C9.20202 66.4768 9.66985 66.4768 10.6026 66.4768C14.4923 65.9372 19.2148 60.4107 19.9106 58.6575C20.605 56.9043 20.8831 50.8382 20.8875 48.8166C20.8904 46.7936 20.8846 42.8847 20.8846 42.8847Z" fill="white"/>
<path d="M-2.78505 48.2489C-2.78505 48.2489 -4.02851 38.991 9.34124 39.2519C22.7095 39.5142 20.4852 48.2695 20.4852 48.2695L21.2758 47.7463C21.2758 47.7463 22.7287 42.7282 20.789 39.2461C18.8493 35.7639 19.2874 34.1943 18.5853 33.3223C17.8832 32.4503 11.4756 27.7415 6.20974 29.5719C0.94385 31.4024 -0.548891 33.3223 -1.33804 34.0199C-2.12718 34.7175 -2.65524 35.0663 -2.74227 36.2006C-2.83077 37.335 -3.35884 40.4463 -3.6214 41.4195C-3.88395 42.3926 -3.31164 46.332 -3.31164 47.9016L-2.78505 48.2489Z" fill="#DAD4CF"/>
<path d="M-0.95728 43.2427C-0.95728 43.2427 -1.03789 44.1607 -0.145405 44.2212C0.747082 44.2817 3.58576 40.9183 9.18396 40.9183C14.7822 40.9183 17.8641 44.3437 18.5133 44.5872C19.1625 44.8308 20.2983 43.9762 19.8924 43.1808C19.4864 42.3853 17.2178 38.2573 9.50929 38.2573C1.80079 38.2573 -0.95728 43.2427 -0.95728 43.2427Z" fill="#CFBDB9"/>
<path d="M87.7322 80.4573C78.1834 95.1281 61.659 104.826 42.8708 104.826C26.0955 104.826 11.1243 97.0923 1.31 84.993C4.46019 78.5915 8.24167 73.214 11.5528 71.8529C18.2817 69.0804 25.4224 65.9896 25.4224 65.9896C27.5651 73.6685 33.1485 78.8784 43.8491 78.6816C54.5518 78.4847 57.6246 73.5407 59.3993 70.7703C61.1762 68.002 61.6716 64.9384 61.6716 64.9384C61.6716 64.9384 70.5536 70.473 81.0138 74.2297C83.5891 75.1531 85.8258 77.4796 87.7322 80.4573Z" fill="#F56D4A"/>
<path d="M28.615 64.3902C28.615 64.3902 26.5306 65.491 25.2426 65.8167C25.2426 65.8167 24.8519 80.1084 43.9636 79.5477C63.0754 78.9891 62.4679 64.7778 62.4679 64.7778C62.4679 64.7778 60.2375 64.3882 59.4282 63.6089C59.4282 63.6089 57.2729 76.1959 43.8563 76.132C30.4397 76.0702 28.615 64.3902 28.615 64.3902Z" fill="#B9C5CF"/>
<path d="M59.7939 64.6064C58.3924 63.6156 58.5917 62.0286 58.5917 62.0286V54.2974C53.6114 59.7972 44.8464 62.3015 44.204 62.4547C43.5616 62.3015 35.9903 60.3913 31.0078 54.8914L30.9633 63.6135C30.9633 63.6135 30.764 64.407 29.3626 65.3978C29.3626 65.3978 28.0056 73.9204 34.0122 76.2988C39.6646 78.5365 43.7439 78.2342 44.204 78.1922C44.6662 78.2363 48.7455 78.5365 54.3958 76.2988C60.4045 73.9225 59.7939 64.6064 59.7939 64.6064Z" fill="#E5E3DF"/>
<path d="M28.2322 36.7645C28.2322 36.7645 26.4337 33.594 23.4377 34.5264C20.4417 35.4588 26.036 47.7694 29.2309 44.4132L28.2322 36.7645Z" fill="#CFBDB9"/>
<path d="M59.4802 36.7645C59.4802 36.7645 61.2786 33.594 64.2747 34.5264C67.2707 35.4588 61.6764 47.7694 58.4815 44.4132L59.4802 36.7645Z" fill="#CFBDB9"/>
<path d="M61.1352 27.8183C56.4015 20.151 44.4803 21.0685 43.855 21.1206C43.2275 21.0664 31.3084 20.1489 26.5747 27.8183C26.5747 27.8183 26.5683 33.5276 26.5747 36.4824C26.5811 39.4351 26.9873 48.2972 28.0015 50.8558C29.0157 53.4164 35.9153 61.4883 41.5966 62.2765C42.9589 62.2765 43.6422 62.2765 43.8292 62.2765C43.8657 62.2765 43.8851 62.2765 43.8851 62.2765C44.072 62.2765 44.7553 62.2765 46.1176 62.2765C51.7989 61.4883 58.6964 53.4164 59.7128 50.8558C60.727 48.2951 61.1331 39.4351 61.1395 36.4824C61.1438 33.5276 61.1352 27.8183 61.1352 27.8183Z" fill="white"/>
<path d="M26.5644 35.6558C26.5644 35.6558 24.7482 22.1339 44.2758 22.5149C63.8011 22.8981 60.5523 35.6857 60.5523 35.6857L61.7071 34.9216C61.7071 34.9216 63.8291 27.5923 60.9961 22.5064C58.1631 17.4204 58.8029 15.1279 57.7774 13.8542C56.7519 12.5806 47.3932 5.70301 39.702 8.37656C32.0107 11.0501 29.8305 13.8542 28.6779 14.8731C27.5253 15.892 26.754 16.4015 26.6269 18.0583C26.4976 19.7151 25.7263 24.2595 25.3428 25.6808C24.9594 27.1021 25.7953 32.8559 25.7953 35.1485L26.5644 35.6558Z" fill="#DAD4CF"/>
<path d="M29.2339 28.3413C29.2339 28.3413 29.1162 29.6821 30.4197 29.7705C31.7232 29.8589 35.8694 24.9463 44.046 24.9463C52.2225 24.9463 56.724 29.9494 57.6722 30.3051C58.6204 30.6607 60.2793 29.4127 59.6864 28.2508C59.0935 27.0889 55.78 21.0598 44.5211 21.0598C33.2623 21.0598 29.2339 28.3413 29.2339 28.3413Z" fill="#CFBDB9"/>
</g>
<rect x="1" y="1" width="86" height="86" rx="43" stroke="#F25824" stroke-width="2"/>
<defs>
<radialGradient id="paint0_radial_1151_127" cx="0" cy="0" r="1" gradientUnits="userSpaceOnUse" gradientTransform="translate(77.8882 81.9497) rotate(90) scale(13.6546 29.585)">
<stop stop-color="#232728"/>
<stop offset="1" stop-color="#1D1F23"/>
</radialGradient>
<radialGradient id="paint1_radial_1151_127" cx="0" cy="0" r="1" gradientUnits="userSpaceOnUse" gradientTransform="translate(9.50912 81.9497) rotate(90) scale(13.6546 29.585)">
<stop stop-color="#232728"/>
<stop offset="1" stop-color="#1D1F23"/>
</radialGradient>
<clipPath id="clip0_1151_127">
<rect width="88" height="88" rx="44" fill="white"/>
</clipPath>
</defs>
</svg>
